<svg width="23" height="22" viewBox="0 0 23 22" fill="none" xmlns="http://www.w3.org/2000/svg">
<path d="M21.9479 6.21136C21.936 5.32775 21.7685 4.45293 21.4529 3.62602C21.1792 2.92852 20.7612 2.29508 20.2255 1.76614C19.6899 1.23721 19.0484 0.82443 18.3421 0.55417C17.5155 0.247751 16.6422 0.0820652 15.7594 0.0641671C14.6228 0.0140001 14.2625 0 11.3774 0C8.49227 0 8.12247 7.82315e-08 6.99418 0.0641671C6.11182 0.0821968 5.23894 0.247881 4.41269 0.55417C3.70625 0.824242 3.06467 1.23696 2.52902 1.76591C1.99336 2.29487 1.57541 2.92842 1.30191 3.62602C0.990992 4.44168 0.82357 5.30382 0.806884 6.1752C0.756082 7.2987 0.740723 7.65454 0.740723 10.5036C0.740723 13.3526 0.740723 13.7166 0.806884 14.8319C0.824606 15.7046 0.991192 16.5656 1.30191 17.3834C1.57587 18.0808 1.99413 18.7141 2.52996 19.2428C3.0658 19.7716 3.70744 20.1841 4.41387 20.4541C5.23786 20.7728 6.11089 20.9504 6.99536 20.9791C8.1331 21.0293 8.49345 21.0444 11.3786 21.0444C14.2637 21.0444 14.6335 21.0444 15.7618 20.9791C16.6445 20.9619 17.5178 20.7966 18.3444 20.4903C19.0506 20.2197 19.6919 19.8068 20.2275 19.2779C20.7631 18.749 21.1812 18.1157 21.4552 17.4184C21.7659 16.6017 21.9325 15.7407 21.9503 14.8669C22.0011 13.7446 22.0164 13.3887 22.0164 10.5386C22.014 7.68954 22.014 7.32787 21.9479 6.21136ZM11.3703 15.8912C8.35286 15.8912 5.90842 13.4774 5.90842 10.4977C5.90842 7.51804 8.35286 5.10419 11.3703 5.10419C12.8189 5.10419 14.2081 5.67244 15.2324 6.68392C16.2567 7.6954 16.8322 9.06727 16.8322 10.4977C16.8322 11.9282 16.2567 13.3 15.2324 14.3115C14.2081 15.323 12.8189 15.8912 11.3703 15.8912ZM17.0496 6.16236C16.8823 6.16252 16.7166 6.13009 16.562 6.06694C16.4074 6.00379 16.2669 5.91116 16.1486 5.79434C16.0303 5.67753 15.9365 5.53882 15.8726 5.38616C15.8086 5.23351 15.7758 5.06989 15.776 4.90469C15.776 4.73961 15.8089 4.57614 15.8729 4.42362C15.9368 4.27111 16.0306 4.13253 16.1488 4.01579C16.267 3.89906 16.4074 3.80647 16.5618 3.74329C16.7163 3.68012 16.8818 3.6476 17.049 3.6476C17.2162 3.6476 17.3817 3.68012 17.5361 3.74329C17.6906 3.80647 17.8309 3.89906 17.9491 4.01579C18.0673 4.13253 18.1611 4.27111 18.2251 4.42362C18.2891 4.57614 18.322 4.73961 18.322 4.90469C18.322 5.60003 17.7525 6.16236 17.0496 6.16236Z" fill="url(#paint0_linear_725_26324)"/>
<path d="M11.2105 14.0071C13.17 14.0071 14.7585 12.4385 14.7585 10.5035C14.7585 8.56859 13.17 7 11.2105 7C9.25106 7 7.6626 8.56859 7.6626 10.5035C7.6626 12.4385 9.25106 14.0071 11.2105 14.0071Z" fill="url(#paint1_linear_725_26324)"/>
<defs>
<linearGradient id="paint0_linear_725_26324" x1="-2.16832" y1="26" x2="19.8343" y2="2.03042" gradientUnits="userSpaceOnUse">
<stop offset="0.24147" stop-color="#FCFE8C"/>
<stop offset="0.381686" stop-color="#FD1D1D"/>
<stop offset="0.544641" stop-color="#E1306C" stop-opacity="0.72"/>
<stop offset="0.697733" stop-color="#C13584" stop-opacity="0.71"/>
<stop offset="0.831333" stop-color="#833AB4" stop-opacity="0.65"/>
<stop offset="0.915169" stop-color="#5851DB" stop-opacity="0.583846"/>
<stop offset="1" stop-color="#405DE6" stop-opacity="0.63"/>
</linearGradient>
<linearGradient id="paint1_linear_725_26324" x1="6.69237" y1="15.6571" x2="14.0175" y2="7.66394" gradientUnits="userSpaceOnUse">
<stop offset="0.24147" stop-color="#FCFE8C"/>
<stop offset="0.381686" stop-color="#FD1D1D"/>
<stop offset="0.544641" stop-color="#E1306C" stop-opacity="0.72"/>
<stop offset="0.697733" stop-color="#C13584" stop-opacity="0.71"/>
<stop offset="0.831333" stop-color="#833AB4" stop-opacity="0.65"/>
<stop offset="0.915169" stop-color="#5851DB" stop-opacity="0.583846"/>
<stop offset="1" stop-color="#405DE6" stop-opacity="0.63"/>
</linearGradient>
</defs>
</svg>
