<svg width="37" height="49" viewBox="0 0 37 49" fill="none" xmlns="http://www.w3.org/2000/svg">
<path d="M36.0312 18.0723C36.0312 8.39183 28.1836 0.541016 18.5 0.541016C8.81956 0.541016 0.96875 8.39183 0.96875 18.0723C0.96875 24.782 4.74434 30.6071 10.2826 33.554L8.9375 48.3535L18.5 41.9785L28.0625 48.3535L26.7174 33.554C29.5296 32.0627 31.8825 29.8336 33.5234 27.106C35.1643 24.3784 36.0313 21.2554 36.0312 18.0723ZM18.5 32.416C10.5775 32.416 4.15625 25.9948 4.15625 18.0723C4.15625 10.1497 10.5775 3.72852 18.5 3.72852C26.4225 3.72852 32.8438 10.1497 32.8438 18.0723C32.8438 25.9948 26.4225 32.416 18.5 32.416Z" fill="#32BA91"/>
</svg>
