<svg width="67" height="54" viewBox="0 0 67 54" fill="none" xmlns="http://www.w3.org/2000/svg">
<path d="M53.1952 15.1501C55.6989 18.0264 57.8845 24.7923 58.6967 31.5791C59.0442 34.4721 62.4816 35.8287 64.6964 33.9279C64.7089 33.9153 64.7257 33.9027 64.7383 33.8902C67.4471 31.533 67.5099 10.3687 63.5911 5.86373C59.6722 1.35873 38.7047 -1.51341 35.9917 0.843761C35.9289 0.898189 35.8661 0.956799 35.8033 1.01541C33.6931 2.96646 34.5598 6.48338 37.3398 7.22863C44.089 9.03314 50.6664 12.2444 53.1994 15.1542L53.1952 15.1501Z" fill="#FFCC04"/>
<path d="M25.5604 30.0592C24.6226 30.5156 24.0322 31.2692 23.7894 32.3201C23.5926 33.1742 23.4754 33.1993 23.4377 34.1748C23.421 34.648 23.802 35.0415 24.2751 35.0415H38.8577V38.9352C38.7949 40.6979 38.4348 43.3607 37.7691 44.4409C37.1034 45.5211 35.9688 46.2747 34.3653 46.7018C32.7617 47.1288 30.5385 47.3423 27.6915 47.3423C24.8445 47.3423 22.4245 46.999 20.6116 46.3166C18.7987 45.6341 17.4464 44.3948 16.5714 42.6029C15.6921 40.8109 15.2567 36.9716 15.2567 33.5552C15.2567 29.9127 15.7256 27.1703 16.6635 25.3198C17.6013 23.4692 19.1002 22.2173 21.1559 21.5642C23.2116 20.9111 25.9958 20.5845 29.5086 20.5845C30.3543 20.5845 31.581 20.6012 33.1846 20.6264C34.7881 20.6557 36.5591 20.7268 38.4935 20.8399C40.4278 20.9529 42.3202 21.112 44.1666 21.3088C44.6899 21.3674 45.1923 21.426 45.678 21.4888C46.1637 21.5516 46.6242 21.1665 46.6242 20.6599V18.7842C46.6242 16.1967 44.6564 14.0322 42.0815 13.7809C40.9888 13.6763 39.829 13.5842 38.7656 13.5381C35.3743 13.3958 31.4722 13.3246 27.0551 13.3246C23.0609 13.3246 19.3974 13.5507 16.0689 14.007C12.7404 14.4634 9.88085 15.3719 7.49019 16.7368C5.09952 18.1017 3.25314 20.1365 1.95105 22.8412C0.648954 25.5459 0 29.113 0 33.551C0 37.6499 0.498228 40.991 1.49887 43.5784C2.49952 46.17 4.06957 48.1881 6.2174 49.6367C8.36523 51.0895 11.1327 52.0818 14.524 52.6261C17.9111 53.1662 21.9974 53.4383 26.7788 53.4383C32.2258 53.4383 36.6889 53.1662 40.1682 52.6261C43.6474 52.086 46.3395 51.2486 48.2487 50.1098C50.1537 48.971 51.4558 47.4638 52.1508 45.5881C52.8458 43.7124 53.1933 41.4348 53.1933 38.7594L53.277 30.2183C53.2812 29.7536 52.9044 29.3726 52.4397 29.3726H30.1366C28.0181 29.3726 26.4899 29.5987 25.552 30.055L25.5604 30.0592Z" fill="#231F20"/>
</svg>
